# xmcd
#
# Track frame offsets:
#	150
#	9475
#	22225
#	36325
#	49825
#	62235
#	71932
#	81565
#	91920
#	103017
#	112845
#	122240
#	135062
#	149182
#	162625
#	175047
#	184825
#	194407
#	204775
#	215875
#
# Disc length: 3004
#
# Revision: 1
# Processed by: cddbd v1.5.2PL0 Copyright (c) Steve Scherf et al.
# Submitted via: kJams Lite (development) 1.0patch46.1
#
DISCID=320bba14
DTITLE=Cline, Patsy - PSCDG1009
DYEAR=2000
DGENRE=Karaoke
TTITLE0=Cline, Patsy - Walkin' After Midnight (with vocals)
TTITLE1=Cline, Patsy - Sweet Dreams (with vocals)
TTITLE2=Cline, Patsy - She's Got You (with vocals)
TTITLE3=Cline, Patsy - I Fall to Pieces (with vocals)
TTITLE4=Cline, Patsy - Crazy (with vocals)
TTITLE5=Cline, Patsy - Blue Moon of Kentucky (with vocals)
TTITLE6=Cline, Patsy - Foolin' Around (with vocals)
TTITLE7=Cline, Patsy - San Antonio Rose (with vocals)
TTITLE8=Cline, Patsy - Half as Much (with vocals)
TTITLE9=Cline, Patsy - Back in Baby's Arms (with vocals)
TTITLE10=Cline, Patsy - Walkin' After Midnight
TTITLE11=Cline, Patsy - Sweet Dreams
TTITLE12=Cline, Patsy - She's Got You
TTITLE13=Cline, Patsy - I Fall To Pieces
TTITLE14=Cline, Patsy - Crazy
TTITLE15=Cline, Patsy - Blue Moon of Kentucky
TTITLE16=Cline, Patsy - Foolin' Around
TTITLE17=Cline, Patsy - San Antonio Rose
TTITLE18=Cline, Patsy - Half as Much
TTITLE19=Cline, Patsy - Back in Baby's Arms
EXTD=
EXTT0=
EXTT1=
EXTT2=
EXTT3=
EXTT4=
EXTT5=
EXTT6=
EXTT7=
EXTT8=
EXTT9=
EXTT10=
EXTT11=
EXTT12=
EXTT13=
EXTT14=
EXTT15=
EXTT16=
EXTT17=
EXTT18=
EXTT19=
PLAYORDER=
